<svg xmlns="http://www.w3.org/2000/svg"  viewBox="0 0 50 50" width="50px" height="50px" fill-rule="evenodd"><path fill-rule="evenodd" d="M 34.734375 2 C 27.839844 2 23.359375 7.203125 23.359375 14.101563 C 23.359375 20.878906 26.992188 26.6875 32.4375 29.347656 C 30.136719 33.703125 27.597656 37.820313 24.574219 40.722656 C 19.246094 34.308594 13.800781 25.335938 12.46875 9 L 4 9 C 7.75 36.46875 19.246094 45.5625 22.152344 47.257813 C 23.847656 48.226563 25.175781 48.226563 26.75 47.378906 C 29.171875 46.046875 35.582031 39.148438 39.578125 31.042969 C 41.269531 31.042969 44.0625 30.808594 46 30.445313 L 46 25 C 44.667969 25 42.601563 24.992188 41.515625 24.992188 C 35.585938 24.992188 30.742188 21.242188 30.742188 14.222656 C 30.742188 10.714844 32.316406 9.261719 34.253906 9.261719 C 36.070313 9.261719 37.519531 10.472656 37.519531 13.738281 C 37.519531 15.554688 37.035156 17.609375 36.671875 18.820313 C 36.671875 18.820313 38.367188 22.449219 43.449219 21 C 44.539063 18.699219 45.144531 15.671875 45.144531 13.132813 C 45.144531 6.113281 41.511719 2 34.734375 2 Z"/></svg>